<?xml version="1.0" standalone="no"?>
<!DOCTYPE svg PUBLIC "-//W3C//DTD SVG 20010904//EN"
 "http://www.w3.org/TR/2001/REC-SVG-20010904/DTD/svg10.dtd">
<svg version="1.0" xmlns="http://www.w3.org/2000/svg"
 width="100.000000pt" height="100.000000pt" viewBox="0 0 100.000000 100.000000"
 preserveAspectRatio="xMidYMid meet">

<g transform="translate(0.000000,100.000000) scale(0.100000,-0.100000)"
fill="#000000" stroke="none">
<path d="M372 905 c-128 -28 -228 -93 -263 -170 -22 -48 -24 -140 -4 -175 21
-37 19 -43 -25 -70 -44 -27 -47 -32 -25 -50 12 -10 44 7 187 100 95 62 174
114 176 116 2 1 -1 12 -8 23 -11 21 -12 20 -71 -19 l-60 -41 -15 36 c-20 48
-11 84 29 123 99 96 279 75 352 -41 10 -16 14 -31 9 -36 -5 -4 -108 -70 -229
-146 -121 -75 -238 -152 -261 -171 -90 -74 -96 -144 -18 -213 163 -144 525
-126 671 32 65 70 79 158 39 238 -18 35 -19 32 37 66 29 19 35 40 13 49 -9 3
-90 -44 -190 -109 -161 -105 -174 -116 -162 -133 13 -17 17 -16 71 20 31 20
58 36 60 34 13 -15 25 -52 25 -75 0 -109 -177 -176 -303 -114 -51 25 -103 82
-94 104 3 8 108 79 234 158 126 79 249 165 276 191 42 42 47 52 47 92 0 33 -6
52 -26 75 -81 97 -294 144 -472 106z"/>
</g>
</svg>
